<svg width="430" height="379" viewBox="0 0 430 379" fill="none" xmlns="http://www.w3.org/2000/svg">
<g clip-path="url(#clip0_3_6)">
<path d="M228.642 88.1755H79.8959C76.3108 88.1711 72.8737 86.6436 70.3386 83.9278C67.8035 81.2121 66.3776 77.5301 66.3735 73.6895V14.486C66.3776 10.6454 67.8036 6.96337 70.3386 4.24767C72.8737 1.53197 76.3108 0.00436746 79.8959 0H228.642C232.227 0.0043658 235.664 1.53196 238.199 4.24767C240.734 6.96337 242.16 10.6454 242.164 14.486V73.6895C242.16 77.5301 240.734 81.2121 238.199 83.9278C235.664 86.6436 232.227 88.1711 228.642 88.1755Z" fill="white"/>
<path d="M228.642 88.1755H79.8959C76.3108 88.1711 72.8737 86.6436 70.3386 83.9278C67.8035 81.2121 66.3776 77.5301 66.3735 73.6895V14.486C66.3776 10.6454 67.8036 6.96337 70.3386 4.24767C72.8737 1.53197 76.3108 0.00436746 79.8959 0H228.642C232.227 0.0043658 235.664 1.53196 238.199 4.24767C240.734 6.96337 242.16 10.6454 242.164 14.486V73.6895C242.16 77.5301 240.734 81.2121 238.199 83.9278C235.664 86.6436 232.227 88.1711 228.642 88.1755ZM79.8959 1.25965C76.6225 1.26358 73.4843 2.65833 71.1697 5.13789C68.855 7.61746 67.5531 10.9793 67.5494 14.486V73.6895C67.5531 77.1961 68.8551 80.558 71.1697 83.0375C73.4843 85.5171 76.6226 86.9118 79.8959 86.9158H228.642C231.915 86.9118 235.054 85.5171 237.368 83.0375C239.683 80.558 240.985 77.1961 240.989 73.6895V14.486C240.985 10.9793 239.683 7.61746 237.368 5.13789C235.054 2.65833 231.915 1.26358 228.642 1.25965H79.8959Z" fill="#3F3D56"/>
<path d="M284.927 96.2327H205.809C205.31 96.2265 204.813 96.159 204.328 96.0316C202.88 95.659 201.593 94.7742 200.673 93.5203C199.753 92.2664 199.255 90.7167 199.259 89.122V60.3136C199.262 58.4292 199.963 56.623 201.207 55.2911C202.451 53.9593 204.138 53.2106 205.897 53.2093H284.927C285.992 53.2063 287.042 53.4816 287.985 54.0114C288.361 54.2201 288.716 54.4685 289.046 54.7528C289.833 55.4131 290.47 56.2573 290.906 57.221C291.343 58.1847 291.568 59.2425 291.564 60.3136V89.122C291.562 91.0072 290.862 92.8146 289.618 94.1477C288.374 95.4808 286.686 96.2306 284.927 96.2327Z" fill="white"/>
<path d="M279.624 95.6029C283.216 86.25 287 76.9895 290.976 67.8213V83.3654C288.265 87.7844 285.128 91.886 281.617 95.6029H279.624Z" fill="#E6E6E6"/>
<path d="M288.678 55.2437C281.57 68.9046 274.132 82.3577 266.366 95.6029H265.013C272.909 82.1498 280.476 68.4721 287.713 54.5698C288.055 54.7595 288.378 54.9852 288.678 55.2437Z" fill="#E6E6E6"/>
<path d="M236.517 70.158C231.871 78.9558 226.746 87.4523 221.166 95.6029H213.105C218.385 88.7126 223.668 81.8223 228.956 74.932C230.473 72.9481 232.119 70.8696 234.394 70.0635L236.517 70.158Z" fill="#E6E6E6"/>
<path d="M225.804 68.7472C224.964 69.6856 224.158 70.6618 223.4 71.6758C221.73 73.8298 220.084 76.0027 218.432 78.1693C217.403 79.5171 216.374 80.865 215.357 82.2128C215.034 81.9905 214.727 81.7421 214.44 81.4696C212.815 79.9591 211.808 77.827 211.633 75.5302C211.458 73.2334 212.13 70.9547 213.505 69.1822C214.879 67.4098 216.848 66.2846 218.987 66.0479C221.127 65.8112 223.268 66.4817 224.952 67.9158C225.255 68.1693 225.54 68.4473 225.804 68.7472Z" fill="#6C63FF"/>
<path d="M271.269 74.869L255.818 68.8164L248.146 65.8121C245.647 64.8359 243.154 63.7211 240.573 63.0157C238.329 62.3285 235.945 62.3614 233.718 63.1102C231.732 63.8976 229.914 65.1057 228.374 66.6624C227.692 67.3363 227.031 68.0312 226.392 68.7471C225.552 69.6856 224.746 70.6618 223.988 71.6758C222.318 73.8298 220.672 76.0027 219.02 78.1693C217.991 79.5171 216.962 80.865 215.945 82.2128C212.547 86.6656 209.168 91.129 205.809 95.6029C205.357 95.5972 204.907 95.536 204.468 95.4202C207.973 90.7595 211.492 86.1093 215.028 81.4696C215.433 80.9279 215.851 80.38 216.262 79.8383C217.985 77.5773 219.71 75.3183 221.436 73.0614C222.771 71.3168 224.094 69.5596 225.54 67.9158C225.669 67.7646 225.799 67.6198 225.934 67.4686C228.868 64.2187 232.53 61.3467 236.916 61.2711C239.497 61.227 241.99 62.1025 244.389 63.0283C246.97 64.0297 249.545 65.0501 252.126 66.0641L267.683 72.1608L271.575 73.685C272.263 73.9495 271.969 75.1462 271.269 74.869Z" fill="#E6E6E6"/>
<path d="M284.927 96.2327H205.809C205.31 96.2265 204.813 96.159 204.328 96.0316C202.88 95.659 201.593 94.7742 200.673 93.5203C199.753 92.2664 199.255 90.7167 199.259 89.122V60.3136C199.262 58.4292 199.963 56.623 201.207 55.2911C202.451 53.9593 204.138 53.2106 205.897 53.2093H284.927C285.992 53.2063 287.042 53.4816 287.985 54.0114C288.361 54.2201 288.716 54.4685 289.046 54.7528C289.833 55.4131 290.47 56.2573 290.906 57.221C291.343 58.1847 291.568 59.2425 291.564 60.3136V89.122C291.562 91.0072 290.862 92.8146 289.618 94.1477C288.374 95.4808 286.686 96.2306 284.927 96.2327ZM205.897 54.469C204.45 54.4699 203.062 55.0858 202.038 56.1815C201.014 57.2772 200.438 58.7632 200.435 60.3136V89.122C200.432 90.4344 200.842 91.7097 201.599 92.7416C202.355 93.7735 203.415 94.5016 204.607 94.8082C205.003 94.9122 205.408 94.9675 205.816 94.9731H284.927C286.375 94.9712 287.763 94.3542 288.787 93.2573C289.811 92.1604 290.387 90.6732 290.388 89.122V60.3136C290.391 59.4322 290.205 58.5618 289.846 57.7689C289.486 56.976 288.963 56.2817 288.314 55.7388C288.044 55.505 287.752 55.3008 287.444 55.1292C286.667 54.6932 285.803 54.4665 284.927 54.469H205.897Z" fill="#3F3D56"/>
<path d="M127.581 123.753H13.5224C9.93726 123.749 6.50013 122.221 3.96506 119.506C1.43 116.79 0.00402725 113.108 0 109.267V87.8531C0.00407539 84.0125 1.43006 80.3305 3.96511 77.6148C6.50017 74.8991 9.93727 73.3715 13.5224 73.3671H127.581C131.166 73.3715 134.603 74.8991 137.138 77.6148C139.673 80.3305 141.099 84.0125 141.103 87.8531V109.267C141.099 113.108 139.673 116.79 137.138 119.506C134.603 122.221 131.166 123.749 127.581 123.753Z" fill="white"/>
<path d="M127.581 123.753H13.5224C9.93726 123.749 6.50013 122.221 3.96506 119.506C1.43 116.79 0.00402725 113.108 0 109.267V87.8531C0.00407539 84.0125 1.43006 80.3305 3.96511 77.6148C6.50017 74.8991 9.93727 73.3715 13.5224 73.3671H127.581C131.166 73.3715 134.603 74.8991 137.138 77.6148C139.673 80.3305 141.099 84.0125 141.103 87.8531V109.267C141.099 113.108 139.673 116.79 137.138 119.506C134.603 122.221 131.166 123.749 127.581 123.753ZM13.5224 74.6268C10.249 74.6307 7.11075 76.0255 4.79612 78.505C2.4815 80.9846 1.17953 84.3465 1.17586 87.8531V109.267C1.17958 112.774 2.48156 116.136 4.79618 118.615C7.11079 121.095 10.249 122.489 13.5224 122.493H127.581C130.854 122.489 133.992 121.095 136.307 118.615C138.621 116.136 139.923 112.774 139.927 109.267V87.8531C139.924 84.3465 138.622 80.9846 136.307 78.505C133.992 76.0255 130.854 74.6307 127.581 74.6268H13.5224Z" fill="#3F3D56"/>
<path d="M47.0126 111.708H28.6761C27.6959 111.707 26.7562 111.29 26.0632 110.547C25.3701 109.805 24.9803 108.798 24.9792 107.748V89.3722C24.9803 88.3222 25.3701 87.3156 26.0632 86.5731C26.7562 85.8306 27.6959 85.413 28.6761 85.4119H47.0126C47.9927 85.413 48.9324 85.8306 49.6255 86.5731C50.3186 87.3156 50.7084 88.3222 50.7095 89.3722V107.748C50.7084 108.798 50.3186 109.805 49.6255 110.547C48.9324 111.29 47.9927 111.707 47.0126 111.708Z" fill="#6C63FF"/>
<path d="M79.7198 111.708H61.3833C60.4031 111.707 59.4634 111.29 58.7704 110.547C58.0773 109.805 57.6875 108.798 57.6864 107.748V89.3722C57.6875 88.3222 58.0773 87.3156 58.7704 86.5731C59.4634 85.8306 60.4031 85.413 61.3833 85.4119H79.7198C80.6999 85.413 81.6396 85.8306 82.3327 86.5731C83.0258 87.3156 83.4156 88.3222 83.4167 89.3722V107.748C83.4156 108.798 83.0258 109.805 82.3327 110.547C81.6396 111.29 80.6999 111.707 79.7198 111.708Z" fill="#E6E6E6"/>
<path d="M112.427 111.708H94.0905C93.1103 111.707 92.1706 111.29 91.4775 110.547C90.7845 109.805 90.3946 108.798 90.3936 107.748V89.3722C90.3946 88.3222 90.7845 87.3156 91.4775 86.5731C92.1706 85.8306 93.1103 85.413 94.0905 85.4119H112.427C113.407 85.413 114.347 85.8306 115.04 86.5731C115.733 87.3156 116.123 88.3222 116.124 89.3722V107.748C116.123 108.798 115.733 109.805 115.04 110.547C114.347 111.29 113.407 111.707 112.427 111.708Z" fill="#E6E6E6"/>
<path d="M161.521 34.9478H138.004C137.38 34.9478 136.782 34.6824 136.341 34.2099C135.9 33.7375 135.652 33.0967 135.652 32.4285C135.652 31.7604 135.9 31.1196 136.341 30.6471C136.782 30.1747 137.38 29.9092 138.004 29.9092H161.521C162.145 29.9092 162.743 30.1747 163.184 30.6471C163.625 31.1196 163.873 31.7604 163.873 32.4285C163.873 33.0967 163.625 33.7375 163.184 34.2099C162.743 34.6824 162.145 34.9478 161.521 34.9478Z" fill="#CCCCCC"/>
<path d="M212.083 48.804H137.416C136.792 48.804 136.194 48.5385 135.753 48.0661C135.312 47.5936 135.064 46.9528 135.064 46.2847C135.064 45.6165 135.312 44.9757 135.753 44.5033C136.194 44.0308 136.792 43.7654 137.416 43.7654H212.083C212.706 43.7654 213.305 44.0308 213.746 44.5033C214.187 44.9757 214.434 45.6165 214.434 46.2847C214.434 46.9528 214.187 47.5936 213.746 48.0661C213.305 48.5385 212.706 48.804 212.083 48.804Z" fill="#CCCCCC"/>
<path d="M110.075 56.2478C118.783 56.2478 125.842 48.6854 125.842 39.3566C125.842 30.0278 118.783 22.4654 110.075 22.4654C101.367 22.4654 94.3071 30.0278 94.3071 39.3566C94.3071 48.6854 101.367 56.2478 110.075 56.2478Z" fill="#CC00FF"/>
<path d="M281.618 197.443H132.872C129.287 197.438 125.85 195.911 123.315 193.195C120.78 190.479 119.354 186.797 119.35 182.957V123.753C119.354 119.913 120.78 116.231 123.315 113.515C125.85 110.799 129.287 109.272 132.872 109.267H281.618C285.203 109.272 288.64 110.799 291.175 113.515C293.71 116.231 295.136 119.913 295.141 123.753V182.957C295.137 186.797 293.711 190.479 291.175 193.195C288.64 195.911 285.203 197.438 281.618 197.443Z" fill="white"/>
<path d="M281.618 197.443H132.872C129.287 197.438 125.85 195.911 123.315 193.195C120.78 190.479 119.354 186.797 119.35 182.957V123.753C119.354 119.913 120.78 116.231 123.315 113.515C125.85 110.799 129.287 109.272 132.872 109.267H281.618C285.203 109.272 288.64 110.799 291.175 113.515C293.71 116.231 295.136 119.913 295.141 123.753V182.957C295.137 186.797 293.711 190.479 291.175 193.195C288.64 195.911 285.203 197.438 281.618 197.443ZM132.872 110.527C129.599 110.531 126.46 111.925 124.146 114.405C121.831 116.885 120.529 120.246 120.526 123.753V182.957C120.529 186.463 121.831 189.825 124.146 192.305C126.46 194.784 129.599 196.179 132.872 196.183H281.618C284.892 196.179 288.03 194.784 290.344 192.305C292.659 189.825 293.961 186.463 293.965 182.957V123.753C293.961 120.246 292.659 116.885 290.344 114.405C288.03 111.925 284.892 110.531 281.618 110.527H132.872Z" fill="#3F3D56"/>
<path d="M190.806 132.724H165.821C165.507 132.725 165.196 132.659 164.907 132.531C164.617 132.402 164.353 132.214 164.131 131.977C163.909 131.739 163.733 131.458 163.613 131.147C163.493 130.837 163.431 130.504 163.431 130.168C163.431 129.832 163.493 129.499 163.613 129.189C163.733 128.879 163.909 128.597 164.131 128.359C164.353 128.122 164.617 127.934 164.907 127.806C165.196 127.677 165.507 127.612 165.821 127.612H190.806C191.438 127.613 192.044 127.883 192.491 128.362C192.937 128.841 193.188 129.491 193.188 130.168C193.188 130.845 192.937 131.495 192.491 131.974C192.044 132.453 191.438 132.723 190.806 132.724Z" fill="#CC00FF"/>
<path d="M246.814 143.178H165.821C165.188 143.178 164.581 142.909 164.134 142.43C163.686 141.95 163.435 141.3 163.435 140.622C163.435 139.944 163.686 139.294 164.134 138.815C164.581 138.335 165.188 138.066 165.821 138.066H246.814C247.447 138.066 248.054 138.335 248.501 138.815C248.949 139.294 249.2 139.944 249.2 140.622C249.2 141.3 248.949 141.95 248.501 142.43C248.054 142.909 247.447 143.178 246.814 143.178Z" fill="#E6E6E6"/>
<path d="M246.814 155.178H165.821C165.507 155.178 165.197 155.112 164.908 154.983C164.618 154.855 164.355 154.667 164.134 154.429C163.912 154.192 163.736 153.91 163.616 153.6C163.497 153.29 163.435 152.958 163.435 152.622C163.435 152.286 163.497 151.954 163.616 151.644C163.736 151.334 163.912 151.052 164.134 150.815C164.355 150.577 164.618 150.389 164.908 150.261C165.197 150.132 165.507 150.066 165.821 150.066H246.814C247.447 150.066 248.054 150.335 248.501 150.815C248.949 151.294 249.2 151.944 249.2 152.622C249.2 153.3 248.949 153.95 248.501 154.429C248.054 154.909 247.447 155.178 246.814 155.178Z" fill="#E6E6E6"/>
<path d="M246.814 167.178H165.821C165.507 167.178 165.196 167.113 164.907 166.984C164.617 166.856 164.353 166.668 164.131 166.431C163.909 166.193 163.733 165.911 163.613 165.601C163.493 165.291 163.431 164.958 163.431 164.622C163.431 164.286 163.493 163.953 163.613 163.643C163.733 163.332 163.909 163.05 164.131 162.813C164.353 162.576 164.617 162.388 164.907 162.259C165.196 162.131 165.507 162.065 165.821 162.066H246.814C247.446 162.067 248.052 162.337 248.499 162.816C248.945 163.295 249.196 163.945 249.196 164.622C249.196 165.299 248.945 165.949 248.499 166.428C248.052 166.907 247.446 167.177 246.814 167.178Z" fill="#E6E6E6"/>
<path d="M246.814 179.178H165.821C165.188 179.178 164.581 178.908 164.134 178.429C163.686 177.95 163.435 177.3 163.435 176.622C163.435 175.944 163.686 175.294 164.134 174.814C164.581 174.335 165.188 174.066 165.821 174.066H246.814C247.447 174.066 248.054 174.335 248.501 174.814C248.949 175.294 249.2 175.944 249.2 176.622C249.2 177.3 248.949 177.95 248.501 178.429C248.054 178.908 247.447 179.178 246.814 179.178Z" fill="#E6E6E6"/>
<path d="M351.88 368.396L343.716 368.395L339.831 334.659L351.882 334.66L351.88 368.396Z" fill="#FFB6B6"/>
<path d="M352.167 377.519L327.061 377.518V377.178C327.061 374.402 328.091 371.739 329.923 369.776C331.756 367.813 334.241 366.71 336.833 366.71L341.42 362.983L349.976 366.711L352.168 366.711L352.167 377.519Z" fill="#2F2E41"/>
<path d="M409.105 352.308L402.426 357.337L381.135 332.135L390.992 324.71L409.105 352.308Z" fill="#FFB6B6"/>
<path d="M414.239 359.594L393.701 375.063L393.519 374.785C392.028 372.514 391.441 369.701 391.886 366.966C392.331 364.231 393.772 361.797 395.892 360.2L395.892 360.2L397.642 354.325L406.643 352.102L408.436 350.752L414.239 359.594Z" fill="#2F2E41"/>
<path d="M384.409 200.562L385.087 202.115C389.546 212.32 390.686 223.728 388.953 234.842C388.825 235.275 388.849 235.745 389.023 236.16C390.097 237.511 388.411 243.377 387.445 246.653L386.574 252.446C386.574 252.446 388.018 257.826 385.824 257.431C383.63 257.035 386.897 262.774 384.804 264.211L379.375 300.314L402.025 340.304L393.636 353.335L360.081 307.054L359.662 265.266L354.628 298.966L354.209 351.987L338.947 350.249L333.356 298.844L338.689 227.754L347.078 196.93L384.409 200.562Z" fill="#2F2E41"/>
<path d="M289.892 188.22C290.684 187.274 291.789 186.695 292.972 186.608C294.155 186.521 295.323 186.932 296.228 187.754C296.41 187.924 296.578 188.11 296.73 188.31L311.687 182.579L317.071 189.686L295.791 195.163C294.968 195.778 293.979 196.083 292.977 196.033C291.976 195.982 291.018 195.577 290.254 194.881C289.822 194.481 289.469 193.994 289.213 193.448C288.957 192.901 288.805 192.306 288.764 191.696C288.723 191.087 288.795 190.474 288.975 189.894C289.155 189.314 289.44 188.778 289.813 188.315C289.839 188.283 289.866 188.251 289.892 188.22Z" fill="#FFB6B6"/>
<path d="M373.923 108.007L361.577 108.637L355.672 119.564L347.284 122.26L340.153 141.132L344.527 199.962C344.527 199.962 345.403 203.52 343.789 203.001C342.175 202.481 342.833 206.941 342.833 206.941L336.884 231.453L390.973 226.415L387.97 200.444C387.97 200.444 392.145 200.588 389.209 197.443C386.273 194.297 384.845 195.299 387.666 191.581C390.486 187.862 390.906 185.166 390.906 185.166L392.164 166.744L394.239 140.817C394.568 136.703 393.937 132.566 392.404 128.777C390.87 124.989 388.482 121.669 385.453 119.114L373.923 108.007Z" fill="#CC00FF"/>
<path d="M403.063 236.43C403.726 235.377 403.979 234.088 403.768 232.837C403.558 231.587 402.9 230.474 401.935 229.735C401.737 229.588 401.527 229.459 401.309 229.35L402.838 212.412L395.088 208.557L395.336 232.002C394.981 233.007 394.946 234.109 395.237 235.137C395.528 236.165 396.129 237.061 396.945 237.684C397.413 238.035 397.94 238.283 398.497 238.415C399.054 238.546 399.63 238.559 400.192 238.453C400.754 238.346 401.291 238.122 401.772 237.793C402.253 237.464 402.669 237.037 402.996 236.536C403.019 236.501 403.041 236.466 403.063 236.43Z" fill="#FFB6B6"/>
<path d="M391.369 126.461C391.369 126.461 409.148 171.832 408.611 189.255L402.732 221.376L394.501 220.746L395.089 191.774C398.092 188.485 385.522 169.907 381.379 156.833L391.369 126.461Z" fill="#CC00FF"/>
<path d="M348.123 121.81C348.123 121.81 326.051 164.865 317.503 177.528L311.015 182.957V191.774L326.102 192.131C326.102 192.131 348.542 172.136 347.703 162.25C346.864 152.365 348.123 121.81 348.123 121.81Z" fill="#CC00FF"/>
<path d="M367.521 104.974C376.168 104.974 383.178 97.4639 383.178 88.2003C383.178 78.9366 376.168 71.4269 367.521 71.4269C358.873 71.4269 351.863 78.9366 351.863 88.2003C351.863 97.4639 358.873 104.974 367.521 104.974Z" fill="#FFB6B6"/>
<path d="M373.571 103.599C369.078 103.441 368.669 102.169 364.176 102.012C362.746 101.961 361.057 101.751 360.366 100.409C359.873 99.4524 360.1 98.2483 360.533 97.2598C361.046 96.3165 361.508 95.3426 361.918 94.3429C362.164 93.559 362.229 92.7225 362.106 91.9058C361.983 91.0891 361.677 90.3167 361.213 89.6554C360.749 88.9941 360.141 88.4637 359.443 88.1102C358.745 87.7567 357.977 87.5906 357.205 87.6263C355.838 87.6896 354.554 88.3784 353.19 88.5043C351.32 88.6769 347.185 82.0626 348.046 80.276C348.884 78.5368 350.571 77.2246 350.836 75.2881C351.009 74.0215 350.521 72.7631 350.455 71.485C350.356 69.5898 354.84 73.8629 354.019 72.181C352.004 68.0554 370.988 62.9406 374.114 68.1084C375.282 70.0398 377.364 69.9081 379.219 71.068C380.435 71.8283 383.506 74.451 384.204 76.0857C384.846 77.7538 385.149 79.5489 385.093 81.352C385.121 89.7376 383.929 97.4511 377.615 102.408" fill="#2F2E41"/>
<path d="M300.398 374.026C296.152 374.427 291.876 373.807 287.883 372.211C283.89 370.615 280.279 368.084 277.316 364.802C273.441 360.425 270.782 354.792 268.211 349.345C267.462 347.76 266.689 346.12 265.901 344.549C265.024 342.836 264.645 340.881 264.814 338.936C264.983 336.99 265.692 335.143 266.849 333.633C267.958 332.124 269.464 331.004 271.172 330.42C272.88 329.835 274.713 329.811 276.434 330.353L276.809 330.469L280.186 344.586C280.69 342.48 281.772 337.736 282.454 333.088L282.512 332.698L282.848 332.859C286.374 334.53 289.69 336.671 292.717 339.23C298.08 343.837 302.441 349.641 305.498 356.237C308.556 362.833 310.235 370.063 310.421 377.424L310.43 377.863L300.398 374.026Z" fill="#F2F2F2"/>
<path d="M429.3 378.806L265.415 379C265.229 379 265.051 378.921 264.92 378.78C264.788 378.64 264.715 378.449 264.715 378.25C264.715 378.051 264.788 377.86 264.92 377.72C265.051 377.579 265.229 377.5 265.415 377.5L429.3 377.307C429.392 377.306 429.483 377.325 429.568 377.363C429.654 377.401 429.731 377.456 429.796 377.525C429.862 377.595 429.913 377.678 429.949 377.769C429.984 377.86 430.002 377.958 430.002 378.056C430.002 378.155 429.984 378.253 429.949 378.344C429.913 378.435 429.862 378.518 429.796 378.587C429.731 378.657 429.654 378.712 429.568 378.75C429.483 378.787 429.392 378.807 429.3 378.806Z" fill="#CACACA"/>
</g>
<defs>
<clipPath id="clip0_3_6">
<rect width="430" height="379" fill="white"/>
</clipPath>
</defs>
</svg>
